<svg width="300" height="300" viewBox="0 0 300 300" fill="none" xmlns="http://www.w3.org/2000/svg">
<path d="M50 87.5L150 37.5L250 87.5C250 152.415 215.196 243.872 150 262.5C84.8035 243.872 50 152.415 50 87.5Z" fill="white"/>
<path d="M50 87.5L150 37.5L250 87.5C250 152.415 215.196 243.872 150 262.5C84.8035 243.872 50 152.415 50 87.5Z" fill="#D9D9D9"/>
<path d="M150 37.5L50 87.5C50 152.415 84.8035 243.872 150 262.5C215.196 243.872 250 152.415 250 87.5L150 37.5Z" stroke="white" stroke-width="3" stroke-linecap="round" stroke-linejoin="round"/>
<g filter="url(#filter0_d_480_1072)">
<path d="M63 94.4444L150.5 50L238 94.4444C238 152.147 207.547 233.442 150.5 250C93.4531 233.442 63 152.147 63 94.4444Z" fill="#DEC0F1"/>
<path d="M63 94.4444L150.5 50L238 94.4444C238 152.147 207.547 233.442 150.5 250C93.4531 233.442 63 152.147 63 94.4444Z" stroke="#C28BDF" stroke-width="1.5" stroke-linecap="round" stroke-linejoin="round"/>
</g>
<g filter="url(#filter1_d_480_1072)">
<path d="M75 100.889L150 62L225 100.889C225 151.379 198.897 222.512 150 237C101.103 222.512 75 151.379 75 100.889Z" fill="#DEC0F1"/>
<path d="M75 100.889L150 62L225 100.889C225 151.379 198.897 222.512 150 237C101.103 222.512 75 151.379 75 100.889Z" stroke="#C28BDF" stroke-width="1.5" stroke-linecap="round" stroke-linejoin="round"/>
</g>
<g filter="url(#filter2_d_480_1072)">
<path d="M78 102.556L150 65L222 102.556C222 151.314 196.941 220.009 150 234C103.059 220.009 78 151.314 78 102.556Z" stroke="white" stroke-width="1.5" stroke-linecap="round" stroke-linejoin="round" shape-rendering="crispEdges"/>
</g>
<path d="M150.397 228.828C150.144 228.938 149.856 228.938 149.603 228.828L138.84 224.168C137.844 223.736 138.152 222.25 139.238 222.25H160.762C161.848 222.25 162.156 223.736 161.16 224.168L150.397 228.828Z" fill="white"/>
<path d="M85.1446 107.144C85.1243 106.756 85.3309 106.391 85.6743 106.208L93.5887 102.007C94.4723 101.538 95.421 102.513 94.9274 103.383L87.4807 116.511C86.9875 117.381 85.6645 117.069 85.6122 116.07L85.1446 107.144Z" fill="white"/>
<path d="M215.477 107.144C215.497 106.756 215.291 106.391 214.947 106.208L207.033 102.007C206.149 101.538 205.201 102.513 205.694 103.383L213.141 116.511C213.634 117.381 214.957 117.069 215.009 116.07L215.477 107.144Z" fill="white"/>
<path d="M172.517 84L150 72L127.483 84" stroke="white"/>
<defs>
<filter id="filter0_d_480_1072" x="58.25" y="49.25" width="184.5" height="209.5" filterUnits="userSpaceOnUse" color-interpolation-filters="sRGB">
<feFlood flood-opacity="0" result="BackgroundImageFix"/>
<feColorMatrix in="SourceAlpha" type="matrix" values="0 0 0 0 0 0 0 0 0 0 0 0 0 0 0 0 0 0 127 0" result="hardAlpha"/>
<feOffset dy="4"/>
<feGaussianBlur stdDeviation="2"/>
<feComposite in2="hardAlpha" operator="out"/>
<feColorMatrix type="matrix" values="0 0 0 0 0 0 0 0 0 0 0 0 0 0 0 0 0 0 0.25 0"/>
<feBlend mode="normal" in2="BackgroundImageFix" result="effect1_dropShadow_480_1072"/>
<feBlend mode="normal" in="SourceGraphic" in2="effect1_dropShadow_480_1072" result="shape"/>
</filter>
<filter id="filter1_d_480_1072" x="70.25" y="61.25" width="159.5" height="184.5" filterUnits="userSpaceOnUse" color-interpolation-filters="sRGB">
<feFlood flood-opacity="0" result="BackgroundImageFix"/>
<feColorMatrix in="SourceAlpha" type="matrix" values="0 0 0 0 0 0 0 0 0 0 0 0 0 0 0 0 0 0 127 0" result="hardAlpha"/>
<feOffset dy="4"/>
<feGaussianBlur stdDeviation="2"/>
<feComposite in2="hardAlpha" operator="out"/>
<feColorMatrix type="matrix" values="0 0 0 0 0 0 0 0 0 0 0 0 0 0 0 0 0 0 0.25 0"/>
<feBlend mode="normal" in2="BackgroundImageFix" result="effect1_dropShadow_480_1072"/>
<feBlend mode="normal" in="SourceGraphic" in2="effect1_dropShadow_480_1072" result="shape"/>
</filter>
<filter id="filter2_d_480_1072" x="73.25" y="64.25" width="153.5" height="178.5" filterUnits="userSpaceOnUse" color-interpolation-filters="sRGB">
<feFlood flood-opacity="0" result="BackgroundImageFix"/>
<feColorMatrix in="SourceAlpha" type="matrix" values="0 0 0 0 0 0 0 0 0 0 0 0 0 0 0 0 0 0 127 0" result="hardAlpha"/>
<feOffset dy="4"/>
<feGaussianBlur stdDeviation="2"/>
<feComposite in2="hardAlpha" operator="out"/>
<feColorMatrix type="matrix" values="0 0 0 0 0 0 0 0 0 0 0 0 0 0 0 0 0 0 0.25 0"/>
<feBlend mode="normal" in2="BackgroundImageFix" result="effect1_dropShadow_480_1072"/>
<feBlend mode="normal" in="SourceGraphic" in2="effect1_dropShadow_480_1072" result="shape"/>
</filter>
</defs>
</svg>
