<svg width="451" height="393" viewBox="0 0 451 393" fill="none" xmlns="http://www.w3.org/2000/svg">
<path fill-rule="evenodd" clip-rule="evenodd" d="M82.4426 330.253C113.3 362.064 153.85 382.725 197.723 388.991L201.216 364.53C115.331 353.364 48.9998 279.928 48.9998 191C48.9998 115.686 96.5764 51.4833 163.315 26.8081L154.666 4.15393C113.262 19.9611 78.2812 49.0727 55.2171 86.917C32.153 124.761 22.3122 169.194 27.24 213.238C32.1678 257.282 51.5852 298.441 82.4426 330.253Z" fill="#4A424D"/>
<path fill-rule="evenodd" clip-rule="evenodd" d="M59.6872 127.989L19.3298 109.101C-0.89922 152.322 -5.41558 201.247 6.55926 247.441C18.5341 293.636 46.2498 334.205 84.9287 362.156L111.274 325.699C72.6165 293.599 48.0002 245.174 48.0002 191C48.0002 168.787 52.1389 147.54 59.6872 127.989Z" fill="#4A424D"/>
<g filter="url(#filter0_d_499_70)">
<path fill-rule="evenodd" clip-rule="evenodd" d="M84.0138 317.899C109.471 346.569 142.923 365.19 179.118 370.837L182 348.792C111.146 338.728 56.424 272.544 56.424 192.396C56.424 124.519 95.6739 66.6559 150.732 44.4173L143.597 24C109.439 38.2463 80.5807 64.4834 61.5532 98.5908C42.5258 132.698 34.4072 172.744 38.4726 212.439C42.5379 252.133 58.5569 289.229 84.0138 317.899Z" fill="#595269"/>
<path fill-rule="evenodd" clip-rule="evenodd" d="M107.799 313.795C75.9074 284.865 55.5993 241.221 55.5993 192.396C55.5993 172.376 59.0136 153.228 65.2409 135.607L31.9467 118.584C15.2582 157.538 11.5322 201.631 21.4113 243.264C31.2903 284.897 54.1553 321.461 86.0647 346.652L107.799 313.795Z" fill="#595269"/>
</g>
<g filter="url(#filter1_d_499_70)">
<path fill-rule="evenodd" clip-rule="evenodd" d="M94.7711 306.088C116.394 331.948 144.809 348.743 175.552 353.837L178 333.953C117.817 324.876 71.3364 265.179 71.3364 192.889C71.3364 131.665 104.675 79.4745 151.441 59.4158L145.381 41C116.367 53.8497 91.855 77.5148 75.6931 108.279C59.5312 139.043 52.6354 175.163 56.0885 210.966C59.5416 246.77 73.1481 280.229 94.7711 306.088Z" fill="#A18DB0"/>
<path fill-rule="evenodd" clip-rule="evenodd" d="M72.4136 168.615L40.5245 160.266C35.1866 187.704 35.9222 216.262 42.6628 243.281C49.4035 270.3 61.9297 294.9 79.0746 314.79L102.117 288.059C82.5467 262.851 70.6356 229.484 70.6356 192.889C70.6356 184.613 71.2446 176.503 72.4136 168.615Z" fill="#A18DB0"/>
</g>
<g filter="url(#filter2_d_499_70)">
<path fill-rule="evenodd" clip-rule="evenodd" d="M363.774 58.7381C332.916 26.9268 292.367 6.26581 248.493 -0.00012207L245 24.4605C330.885 35.6266 397.217 109.062 397.217 197.991C397.217 273.305 349.64 337.508 282.902 362.183L291.551 384.837C332.954 369.03 367.935 339.918 390.999 302.074C414.063 264.23 423.904 219.796 418.976 175.753C414.049 131.709 394.631 90.5493 363.774 58.7381Z" fill="#4A424D"/>
<path fill-rule="evenodd" clip-rule="evenodd" d="M334.942 63.2916C373.6 95.3917 398.216 143.816 398.216 197.991C398.216 220.204 394.077 241.451 386.529 261.002L426.886 279.89C447.116 236.669 451.632 187.744 439.657 141.549C427.682 95.3551 399.966 54.7857 361.288 26.8347L334.942 63.2916Z" fill="#4A424D"/>
</g>
<g filter="url(#filter3_d_499_70)">
<path fill-rule="evenodd" clip-rule="evenodd" d="M285.026 47.6201C343.852 67.5517 386.576 127.468 386.576 198.287C386.576 257.605 356.601 309.275 312.296 336.205L322.074 355.001C349.917 337.716 372.554 311.952 387.223 280.852C401.893 249.752 407.96 214.661 404.686 179.858C401.412 145.055 388.937 112.046 368.784 84.8557C348.631 57.6656 321.67 37.4705 291.19 26.7335L285.026 47.6201Z" fill="#595269"/>
<path fill-rule="evenodd" clip-rule="evenodd" d="M335.201 76.8881C367.093 105.818 387.401 149.462 387.401 198.287C387.401 218.307 383.986 237.455 377.759 255.076L411.053 272.099C427.742 233.145 431.468 189.052 421.589 147.419C411.71 105.786 388.845 69.2221 356.935 44.0311L335.201 76.8881Z" fill="#595269"/>
</g>
<g filter="url(#filter4_d_499_70)">
<path fill-rule="evenodd" clip-rule="evenodd" d="M304.322 69.9338C344.274 93.3836 371.664 141.455 371.664 196.948C371.664 227.091 363.583 255.043 349.797 278.05L363.293 288.764C374.502 269.761 382.104 248.213 385.596 225.547C389.087 202.88 388.388 179.612 383.546 157.282C378.703 134.952 369.827 114.07 357.505 96.0188C345.183 77.9673 329.697 63.158 312.071 52.5711L304.322 69.9338Z" fill="#9284B0"/>
<path fill-rule="evenodd" clip-rule="evenodd" d="M366.049 242.136L395.29 256.024C406.017 225.63 408.763 192.236 403.182 160.037C397.602 127.839 383.945 98.2708 363.926 75.0473L340.884 101.778C360.454 126.986 372.365 160.353 372.365 196.948C372.365 212.745 370.146 227.939 366.049 242.136Z" fill="#9284B0"/>
</g>
<defs>
<filter id="filter0_d_499_70" x="12" y="24" width="174" height="354.837" filterUnits="userSpaceOnUse" color-interpolation-filters="sRGB">
<feFlood flood-opacity="0" result="BackgroundImageFix"/>
<feColorMatrix in="SourceAlpha" type="matrix" values="0 0 0 0 0 0 0 0 0 0 0 0 0 0 0 0 0 0 127 0" result="hardAlpha"/>
<feOffset dy="4"/>
<feGaussianBlur stdDeviation="2"/>
<feComposite in2="hardAlpha" operator="out"/>
<feColorMatrix type="matrix" values="0 0 0 0 0 0 0 0 0 0 0 0 0 0 0 0 0 0 0.25 0"/>
<feBlend mode="normal" in2="BackgroundImageFix" result="effect1_dropShadow_499_70"/>
<feBlend mode="normal" in="SourceGraphic" in2="effect1_dropShadow_499_70" result="shape"/>
</filter>
<filter id="filter1_d_499_70" x="33" y="41" width="149" height="320.837" filterUnits="userSpaceOnUse" color-interpolation-filters="sRGB">
<feFlood flood-opacity="0" result="BackgroundImageFix"/>
<feColorMatrix in="SourceAlpha" type="matrix" values="0 0 0 0 0 0 0 0 0 0 0 0 0 0 0 0 0 0 127 0" result="hardAlpha"/>
<feOffset dy="4"/>
<feGaussianBlur stdDeviation="2"/>
<feComposite in2="hardAlpha" operator="out"/>
<feColorMatrix type="matrix" values="0 0 0 0 0 0 0 0 0 0 0 0 0 0 0 0 0 0 0.25 0"/>
<feBlend mode="normal" in2="BackgroundImageFix" result="effect1_dropShadow_499_70"/>
<feBlend mode="normal" in="SourceGraphic" in2="effect1_dropShadow_499_70" result="shape"/>
</filter>
<filter id="filter2_d_499_70" x="241" y="-0.00012207" width="209.216" height="392.837" filterUnits="userSpaceOnUse" color-interpolation-filters="sRGB">
<feFlood flood-opacity="0" result="BackgroundImageFix"/>
<feColorMatrix in="SourceAlpha" type="matrix" values="0 0 0 0 0 0 0 0 0 0 0 0 0 0 0 0 0 0 127 0" result="hardAlpha"/>
<feOffset dy="4"/>
<feGaussianBlur stdDeviation="2"/>
<feComposite in2="hardAlpha" operator="out"/>
<feColorMatrix type="matrix" values="0 0 0 0 0 0 0 0 0 0 0 0 0 0 0 0 0 0 0.25 0"/>
<feBlend mode="normal" in2="BackgroundImageFix" result="effect1_dropShadow_499_70"/>
<feBlend mode="normal" in="SourceGraphic" in2="effect1_dropShadow_499_70" result="shape"/>
</filter>
<filter id="filter3_d_499_70" x="281.025" y="26.7335" width="149.975" height="336.268" filterUnits="userSpaceOnUse" color-interpolation-filters="sRGB">
<feFlood flood-opacity="0" result="BackgroundImageFix"/>
<feColorMatrix in="SourceAlpha" type="matrix" values="0 0 0 0 0 0 0 0 0 0 0 0 0 0 0 0 0 0 127 0" result="hardAlpha"/>
<feOffset dy="4"/>
<feGaussianBlur stdDeviation="2"/>
<feComposite in2="hardAlpha" operator="out"/>
<feColorMatrix type="matrix" values="0 0 0 0 0 0 0 0 0 0 0 0 0 0 0 0 0 0 0.25 0"/>
<feBlend mode="normal" in2="BackgroundImageFix" result="effect1_dropShadow_499_70"/>
<feBlend mode="normal" in="SourceGraphic" in2="effect1_dropShadow_499_70" result="shape"/>
</filter>
<filter id="filter4_d_499_70" x="300.322" y="52.5711" width="109.679" height="244.193" filterUnits="userSpaceOnUse" color-interpolation-filters="sRGB">
<feFlood flood-opacity="0" result="BackgroundImageFix"/>
<feColorMatrix in="SourceAlpha" type="matrix" values="0 0 0 0 0 0 0 0 0 0 0 0 0 0 0 0 0 0 127 0" result="hardAlpha"/>
<feOffset dy="4"/>
<feGaussianBlur stdDeviation="2"/>
<feComposite in2="hardAlpha" operator="out"/>
<feColorMatrix type="matrix" values="0 0 0 0 0 0 0 0 0 0 0 0 0 0 0 0 0 0 0.25 0"/>
<feBlend mode="normal" in2="BackgroundImageFix" result="effect1_dropShadow_499_70"/>
<feBlend mode="normal" in="SourceGraphic" in2="effect1_dropShadow_499_70" result="shape"/>
</filter>
</defs>
</svg>
