<svg width="300" height="300" viewBox="0 0 300 300" fill="none" xmlns="http://www.w3.org/2000/svg">
<path d="M50 87.5L150 37.5L250 87.5C250 152.415 215.196 243.872 150 262.5C84.8035 243.872 50 152.415 50 87.5Z" fill="white"/>
<path d="M50 87.5L150 37.5L250 87.5C250 152.415 215.196 243.872 150 262.5C84.8035 243.872 50 152.415 50 87.5Z" fill="#D9D9D9"/>
<path d="M150 37.5L50 87.5C50 152.415 84.8035 243.872 150 262.5C215.196 243.872 250 152.415 250 87.5L150 37.5Z" stroke="white" stroke-width="3" stroke-linecap="round" stroke-linejoin="round"/>
<g filter="url(#filter0_d_480_586)">
<path d="M63 94.4444L150.5 50L238 94.4444C238 152.147 207.547 233.442 150.5 250C93.4531 233.442 63 152.147 63 94.4444Z" fill="#197278"/>
<path d="M63 94.4444L150.5 50L238 94.4444C238 152.147 207.547 233.442 150.5 250C93.4531 233.442 63 152.147 63 94.4444Z" stroke="#176A70" stroke-width="1.5" stroke-linecap="round" stroke-linejoin="round"/>
</g>
<g filter="url(#filter1_d_480_586)">
<path d="M75 98.8889L150 60L225 98.8889C225 149.379 198.897 220.512 150 235C101.103 220.512 75 149.379 75 98.8889Z" fill="#197278"/>
<path d="M75 98.8889L150 60L225 98.8889C225 149.379 198.897 220.512 150 235C101.103 220.512 75 149.379 75 98.8889Z" stroke="#145B60" stroke-width="1.5" stroke-linecap="round" stroke-linejoin="round"/>
</g>
<path fill-rule="evenodd" clip-rule="evenodd" d="M154.78 128.133L150.276 105L145.773 128.133L150.276 132.44L154.78 128.133ZM162.067 133.655L159.531 139.453L164.851 142.589L184.553 130.974L162.067 133.655ZM162.067 151.524L155.996 150.8L154.78 157.046L171.46 173L162.067 151.524ZM145.773 157.046L144.557 150.8L138.486 151.524L129.092 173L145.773 157.046ZM135.702 142.589L141.022 139.453L138.486 133.655L116 130.974L135.702 142.589Z" fill="white"/>
<g filter="url(#filter2_d_480_586)">
<path d="M78 100.556L150 63L222 100.556C222 149.314 196.941 218.009 150 232C103.059 218.009 78 149.314 78 100.556Z" stroke="white" stroke-width="1.5" stroke-linecap="round" stroke-linejoin="round" shape-rendering="crispEdges"/>
</g>
<path d="M150.397 226.828C150.144 226.938 149.856 226.938 149.603 226.828L138.84 222.168C137.844 221.736 138.152 220.25 139.238 220.25H160.762C161.848 220.25 162.156 221.736 161.16 222.168L150.397 226.828Z" fill="#D9D9D9"/>
<path d="M85.1446 105.144C85.1243 104.756 85.3309 104.391 85.6743 104.208L93.5887 100.007C94.4723 99.5376 95.421 100.513 94.9274 101.383L87.4807 114.511C86.9875 115.381 85.6645 115.069 85.6122 114.07L85.1446 105.144Z" fill="#D9D9D9"/>
<path d="M215.477 105.144C215.497 104.756 215.291 104.391 214.947 104.208L207.033 100.007C206.149 99.5376 205.201 100.513 205.694 101.383L213.141 114.511C213.634 115.381 214.957 115.069 215.009 114.07L215.477 105.144Z" fill="#D9D9D9"/>
<path d="M172.517 82L150 70L127.483 82" stroke="white"/>
<defs>
<filter id="filter0_d_480_586" x="58.25" y="49.25" width="184.5" height="209.5" filterUnits="userSpaceOnUse" color-interpolation-filters="sRGB">
<feFlood flood-opacity="0" result="BackgroundImageFix"/>
<feColorMatrix in="SourceAlpha" type="matrix" values="0 0 0 0 0 0 0 0 0 0 0 0 0 0 0 0 0 0 127 0" result="hardAlpha"/>
<feOffset dy="4"/>
<feGaussianBlur stdDeviation="2"/>
<feComposite in2="hardAlpha" operator="out"/>
<feColorMatrix type="matrix" values="0 0 0 0 0 0 0 0 0 0 0 0 0 0 0 0 0 0 0.25 0"/>
<feBlend mode="normal" in2="BackgroundImageFix" result="effect1_dropShadow_480_586"/>
<feBlend mode="normal" in="SourceGraphic" in2="effect1_dropShadow_480_586" result="shape"/>
</filter>
<filter id="filter1_d_480_586" x="70.25" y="59.25" width="159.5" height="184.5" filterUnits="userSpaceOnUse" color-interpolation-filters="sRGB">
<feFlood flood-opacity="0" result="BackgroundImageFix"/>
<feColorMatrix in="SourceAlpha" type="matrix" values="0 0 0 0 0 0 0 0 0 0 0 0 0 0 0 0 0 0 127 0" result="hardAlpha"/>
<feOffset dy="4"/>
<feGaussianBlur stdDeviation="2"/>
<feComposite in2="hardAlpha" operator="out"/>
<feColorMatrix type="matrix" values="0 0 0 0 0 0 0 0 0 0 0 0 0 0 0 0 0 0 0.25 0"/>
<feBlend mode="normal" in2="BackgroundImageFix" result="effect1_dropShadow_480_586"/>
<feBlend mode="normal" in="SourceGraphic" in2="effect1_dropShadow_480_586" result="shape"/>
</filter>
<filter id="filter2_d_480_586" x="73.25" y="62.25" width="153.5" height="178.5" filterUnits="userSpaceOnUse" color-interpolation-filters="sRGB">
<feFlood flood-opacity="0" result="BackgroundImageFix"/>
<feColorMatrix in="SourceAlpha" type="matrix" values="0 0 0 0 0 0 0 0 0 0 0 0 0 0 0 0 0 0 127 0" result="hardAlpha"/>
<feOffset dy="4"/>
<feGaussianBlur stdDeviation="2"/>
<feComposite in2="hardAlpha" operator="out"/>
<feColorMatrix type="matrix" values="0 0 0 0 0 0 0 0 0 0 0 0 0 0 0 0 0 0 0.25 0"/>
<feBlend mode="normal" in2="BackgroundImageFix" result="effect1_dropShadow_480_586"/>
<feBlend mode="normal" in="SourceGraphic" in2="effect1_dropShadow_480_586" result="shape"/>
</filter>
</defs>
</svg>
